<svg xmlns="http://www.w3.org/2000/svg" viewBox="0 0 170.78 242.21"><defs><style>.cls-1{fill:#f4f4f4;}</style></defs><title>Asset 10</title><g id="Layer_2" data-name="Layer 2"><g id="Sized"><path class="cls-1" d="M122.2,66.68l-.06,0a18.11,18.11,0,0,0-10.76-3.51h-6a34.79,34.79,0,1,0-40.18,0h-6A18.13,18.13,0,0,0,48.5,66.71l-.06,0L4.15,92.25v35.3a2.25,2.25,0,0,0,.36-.06l.16,0,.56-.12.24-.06.47-.13.35-.11.35-.11.48-.17.21-.08.63-.26.07,0a15.66,15.66,0,0,0,1.62-.85L37.1,109.69,31,153.75H24.17l.69-4.92a6.33,6.33,0,0,0-12.53-1.75L.06,235a6.33,6.33,0,0,0,5.39,7.14,6.62,6.62,0,0,0,.88.06,6.33,6.33,0,0,0,6.26-5.45L21.76,171H47.37v29.13A15.77,15.77,0,0,0,54,213H44.36a6.44,6.44,0,0,0-6.48,6.1,6.33,6.33,0,0,0,6.33,6.55h82.07a6.42,6.42,0,0,0,6.48-6.09,6.33,6.33,0,0,0-6.32-6.56h-9.75a15.77,15.77,0,0,0,6.58-12.82V171H149l9.17,65.72a6.33,6.33,0,0,0,6.26,5.45,6.62,6.62,0,0,0,.88-.06,6.33,6.33,0,0,0,5.39-7.14l-12.27-87.93a6.31,6.31,0,0,0-7.37-5.35A6.42,6.42,0,0,0,146,149l.66,4.77h-6.92l-6.15-44.06L161,125.54a14.85,14.85,0,0,0,1.63.85l.06,0,.63.26.21.08.49.17.34.11.36.11.46.13.24.06.56.12.16,0a2.25,2.25,0,0,0,.36.06V92.25ZM72.37,213A15.77,15.77,0,0,0,79,200.17V171H91.69v29.13A15.77,15.77,0,0,0,98.27,213Z"/></g></g></svg>