<svg xmlns="http://www.w3.org/2000/svg" viewBox="0 0 170.13 268.14"><defs><style>.cls-1{fill:#fff;}</style></defs><title>Asset 9</title><g id="Layer_2" data-name="Layer 2"><g id="Sized"><path class="cls-1" d="M122.93,68.77l-.45-.46-.15-.15h0a18.2,18.2,0,0,0-12.5-5h-6a34.79,34.79,0,1,0-40.18,0h-6a18.18,18.18,0,0,0-12.5,5h0l-.15.15c-.15.15-.31.3-.46.46L0,113.37v38.12a15.77,15.77,0,0,0,11.17-4.62l22.3-22.3-9.79,70.19H39.49v57.33a16,16,0,0,0,15.52,16,15.79,15.79,0,0,0,16.06-15.79V194.76H96.46v57.33a16,16,0,0,0,15.52,16,15.8,15.8,0,0,0,16.07-15.79V194.76h15.81l-9.79-70.19L156.2,146.7a15.73,15.73,0,0,0,1.35,1.24l.06.05.54.41.18.13.43.3.3.2.32.19c.13.09.27.16.41.24l.22.13.51.26.15.07.57.26.1,0,.61.24.1,0,.61.21.11,0,.6.17.15,0,.55.14.22,0,.48.1.31.05.4.06.39,0,.31,0,.49,0h1.69l.65-.05h.1l.65-.07.11,0,.26,0V116Z"/></g></g></svg>