<svg xmlns="http://www.w3.org/2000/svg" viewBox="0 0 185.93 268.14"><defs><style>.cls-1{fill:#fff;}</style></defs><title>Asset 11</title><g id="Layer_2" data-name="Layer 2"><g id="Sized"><path class="cls-1" d="M.38,151.34l.65.07h.1l.65.05H3.46l.49,0,.31,0,.4,0,.4-.06.3-.05.48-.1.23,0,.54-.14.16,0,.59-.17.11,0,.62-.21.09,0c.21-.07.41-.16.61-.24l.11,0,.57-.26.15-.07.5-.26.22-.13.42-.24.31-.19.31-.2.42-.3.18-.13c.19-.13.36-.27.54-.41l.06-.05a15.73,15.73,0,0,0,1.35-1.24l28.16-28.16V252.09a16,16,0,0,0,15.52,16,15.79,15.79,0,0,0,16.06-15.79V182.11H99.06v70a16,16,0,0,0,15.52,16,15.79,15.79,0,0,0,16.06-15.79V118.54l28.14,28.14a16,16,0,0,0,22.33.38,15.8,15.8,0,0,0,.19-22.53L125.53,68.77c-.15-.16-.3-.31-.46-.46l-.14-.15h0a18.16,18.16,0,0,0-12.49-5h-6a34.79,34.79,0,1,0-40.18,0h-6a18.18,18.18,0,0,0-12.5,5h0l-.15.15c-.16.15-.31.3-.46.46L0,116v35.31l.26,0Z"/></g></g></svg>