<svg xmlns="http://www.w3.org/2000/svg" width="46.801" height="46.8" viewBox="0 0 46.801 46.8">
  <title>Asset 13</title>
  <path d="M44.942,14.32a23.1,23.1,0,0,1,0,18.159A23.126,23.126,0,0,1,32.48,44.942,22.77,22.77,0,0,1,23.4,46.8a23.229,23.229,0,0,1-9.963-2.21,22.864,22.864,0,0,1-8.044-6.23,1.091,1.091,0,0,1-.2-.686.9.9,0,0,1,.259-.624l4.174-4.2a1.091,1.091,0,0,1,.762-.275.954.954,0,0,1,.7.366,15.5,15.5,0,0,0,18.357,4.828,15.435,15.435,0,0,0,8.318-8.318,15.438,15.438,0,0,0,0-12.1,15.452,15.452,0,0,0-8.318-8.318A15.21,15.21,0,0,0,23.4,7.8a15.475,15.475,0,0,0-5.728,1.082A15.133,15.133,0,0,0,12.8,11.974l4.174,4.2a1.732,1.732,0,0,1,.426,2.1A1.82,1.82,0,0,1,15.6,19.5H1.95a1.872,1.872,0,0,1-1.371-.579A1.876,1.876,0,0,1,0,17.549V3.9A1.823,1.823,0,0,1,1.219,2.1a1.733,1.733,0,0,1,2.1.427l3.961,3.93a23.643,23.643,0,0,1,7.449-4.767,23.092,23.092,0,0,1,17.749.167A23.12,23.12,0,0,1,44.942,14.32Z" fill="#04a7e0"/>
</svg>
