<svg xmlns="http://www.w3.org/2000/svg" xmlns:xlink="http://www.w3.org/1999/xlink" width="496.212" height="83.185" viewBox="0 0 496.212 83.185">
  <defs>
    <linearGradient id="a" x1="22.545" y1="5.079" x2="47.896" y2="30.703" gradientUnits="userSpaceOnUse">
      <stop offset="0.145" stop-color="#77bd43" stop-opacity="0"/>
      <stop offset="0.25" stop-color="#73ba43" stop-opacity="0.057"/>
      <stop offset="0.414" stop-color="#69b343" stop-opacity="0.211"/>
      <stop offset="0.618" stop-color="#58a843" stop-opacity="0.465"/>
      <stop offset="0.85" stop-color="#419844" stop-opacity="0.813"/>
      <stop offset="0.962" stop-color="#359044"/>
    </linearGradient>
    <linearGradient id="b" x1="38.441" y1="82.92" x2="38.441" y2="22.3" gradientUnits="userSpaceOnUse">
      <stop offset="0" stop-color="#007dbb"/>
      <stop offset="0.172" stop-color="#0089c5" stop-opacity="0.723"/>
      <stop offset="0.385" stop-color="#0096d1" stop-opacity="0.414"/>
      <stop offset="0.568" stop-color="#009fd9" stop-opacity="0.189"/>
      <stop offset="0.71" stop-color="#00a5de" stop-opacity="0.051"/>
      <stop offset="0.796" stop-color="#00a7e0" stop-opacity="0"/>
    </linearGradient>
  </defs>
  <title>Asset 7</title>
  <g>
    <g>
      <path d="M116.715,50.3H104.348V69.692H93.408V10.243h24.549c14.5,0,23.66,7.758,23.66,19.819C141.617,43.383,130.411,50.3,116.715,50.3Zm.354-30.617H104.348v21.25h12.721c8.269,0,13.43-4.3,13.43-10.622C130.5,23.315,125.254,19.687,117.069,19.687Z" fill="#65666a"/>
      <path d="M155.678,69.692H144.914V25.169h10.764V35.2c2.937-6.661,8.362-11.217,16.634-10.877V35.116h-.62c-9.43,0-16.014,5.819-16.014,17.626Z" fill="#65666a"/>
      <path d="M195.7,70.705c-14.323,0-24.909-10.376-24.909-23.107,0-12.815,10.678-23.357,25.089-23.357s24.993,10.37,24.993,23.191C220.877,60.165,210.2,70.705,195.7,70.705Zm0-37.527c-8.628,0-14.145,6.408-14.145,14.254a14.11,14.11,0,0,0,14.325,14.415c8.712,0,14.231-6.407,14.231-14.249A14.132,14.132,0,0,0,195.7,33.178Z" fill="#65666a"/>
      <g>
        <path d="M281.865,69.692H270.3L263.986,55.44H234.538l-6.4,14.252H216.926l27.4-59.449h10.138ZM249.219,22.636,238.545,46.251h21.438Z" fill="#78bd43"/>
        <path d="M335.468,24.241c10.232,0,16.46,6.152,16.46,17.031v28.42H341.161V44.4c0-7.084-3.466-10.877-9.517-10.877-5.872,0-10.052,3.879-10.052,11.049V69.692h-10.76V44.309c0-6.912-3.561-10.791-9.523-10.791s-10.054,4.214-10.054,11.128V69.692H280.5V25.169h10.757v6.74c3.029-3.959,7.12-7.668,14.325-7.668,6.76,0,11.475,3.117,13.967,7.84C323.372,27.358,328.353,24.241,335.468,24.241Z" fill="#78bd43"/>
        <path d="M382.957,70.617a19.431,19.431,0,0,1-15.923-7.846V83.185H356.27V25.169h10.764v7.417c3.469-4.636,8.366-8.345,15.923-8.345,11.118,0,21.88,8.345,21.88,23.191S394.167,70.617,382.957,70.617ZM380.471,33.1c-7.3,0-13.7,5.651-13.7,14.337s6.405,14.334,13.7,14.334c7.381,0,13.428-5.48,13.428-14.334C393.9,38.662,387.762,33.1,380.471,33.1Z" fill="#78bd43"/>
        <path d="M438.887,69.692V64.206c-3.2,3.63-8.1,6.411-15.209,6.411-8.9,0-16.727-4.805-16.727-13.747v-.163c0-9.616,8.095-14.335,19.037-14.335a41.432,41.432,0,0,1,12.987,1.855v-1.1c0-6.154-4.093-9.533-11.564-9.533a34.205,34.205,0,0,0-13.431,2.788L411.041,28.2a42.188,42.188,0,0,1,17.88-3.712c13.879,0,20.636,6.918,20.636,18.809V69.692Zm.264-18.89a32.194,32.194,0,0,0-10.762-1.776c-6.759,0-10.764,2.621-10.764,7.174v.17c0,4.214,4,6.579,9.076,6.579,7.113,0,12.45-3.8,12.45-9.365Z" fill="#78bd43"/>
        <path d="M477,70.705c-13.96,0-24.278-10.376-24.278-23.107s10.318-23.357,24.372-23.357c8.894,0,14.407,3.117,18.77,7.668l-6.673,6.837c-3.291-3.293-6.764-5.568-12.191-5.568-7.825,0-13.518,6.408-13.518,14.254,0,8.008,5.783,14.415,14.054,14.415,5.071,0,8.808-2.275,12.187-5.561l6.493,6.07C491.585,67.245,486.16,70.705,477,70.705Z" fill="#78bd43"/>
      </g>
    </g>
    <g>
      <path d="M41.793,4.164l-.008-.006C39.495,1.871,35.379,0,29.246,0H3.041C-.2,0-.975,1.875,1.317,4.164L37.631,40.48,57.869,20.242Z" fill="#78bd43"/>
      <path d="M41.793,4.164l-.008-.006C39.495,1.871,35.379,0,29.246,0H3.041C-.2,0-.975,1.875,1.317,4.164L37.631,40.48,57.869,20.242Z" fill="url(#a)"/>
      <path d="M76.023,38.4,57.871,20.246l0,0L1.317,76.794C-.975,79.084-.2,80.956,3.041,80.956H29.246c6.079,0,10.205-1.837,12.48-4.1l26.6-26.6,7.7-7.7A2.951,2.951,0,0,0,76.023,38.4Z" fill="#04a7e0"/>
      <path d="M76.023,38.4,57.871,20.246l0,0L1.317,76.794C-.975,79.084-.2,80.956,3.041,80.956H29.246c6.079,0,10.205-1.837,12.48-4.1l26.6-26.6,7.7-7.7A2.951,2.951,0,0,0,76.023,38.4Z" fill="url(#b)"/>
    </g>
  </g>
</svg>
