<svg xmlns="http://www.w3.org/2000/svg" xmlns:xlink="http://www.w3.org/1999/xlink" viewBox="0 0 300.62 105.31"><defs><style>.cls-1{fill:none;}.cls-2{fill:#fff;}.cls-3{clip-path:url(#clip-path);}.cls-4{fill:#8fc349;}.cls-5{fill:#59b44e;}.cls-6{fill:#1fad51;}.cls-7{fill:#00a354;}.cls-8{fill:#00a952;}.cls-9{fill:#25438b;}.cls-10{fill:#059;}</style><clipPath id="clip-path" transform="translate(25.94 18.01)"><path id="SVGID" class="cls-1" d="M1.75,24.51A34.7,34.7,0,1,0,34.87.16,34.73,34.73,0,0,0,1.75,24.51"/></clipPath></defs><title>Asset 4</title><g id="Layer_2" data-name="Layer 2"><g id="Sized"><path class="cls-2" d="M68,45.25A34.71,34.71,0,1,1,45.25,1.75,34.73,34.73,0,0,1,68,45.25" transform="translate(25.94 18.01)"/><g class="cls-3"><rect class="cls-4" x="-12" y="-10.19" width="82.28" height="89.67" transform="translate(13.31 70.12) rotate(-72.62)"/><path class="cls-5" d="M57.05,61.6A111.68,111.68,0,0,1,53.81,49,126.47,126.47,0,0,0,69,28.54a34.77,34.77,0,0,1-12,33.06" transform="translate(25.94 18.01)"/><path class="cls-5" d="M34.17,69.59A34.92,34.92,0,0,1,28.53,69c-.19-.34-.4-.71-.6-1.09a45.25,45.25,0,0,0,9.2-4.57,27.6,27.6,0,0,1-3,6.24" transform="translate(25.94 18.01)"/><path class="cls-5" d="M14.31,21.2a87.69,87.69,0,0,1,.43-14.59A34.79,34.79,0,0,1,34.87.16h.8c.76,3,1.46,6.14,2.07,9.48A100.34,100.34,0,0,0,14.31,21.2" transform="translate(25.94 18.01)"/><path class="cls-5" d="M21.37,53.6C20.19,50.5,19,47.09,18,43.44c3.35-.87,6.79-1.92,10.24-3.14a120.52,120.52,0,0,0-6.89,13.3" transform="translate(25.94 18.01)"/><path class="cls-5" d="M2,45.9A34.49,34.49,0,0,1,.28,32.08a117.29,117.29,0,0,1,14-10.88A103.45,103.45,0,0,0,18,43.44,70,70,0,0,1,2,45.9" transform="translate(25.94 18.01)"/><path class="cls-5" d="M39.75,24.61c-.45-5.13-1.14-10.2-2-15A85.61,85.61,0,0,1,54,5.91c.45.3.9.61,1.33.93-.47,1.59-.88,3.18-1.25,4.75a89.44,89.44,0,0,0-14.35,13" transform="translate(25.94 18.01)"/><path class="cls-6" d="M54.1,11.59c.36-1.58.78-3.16,1.25-4.75A33.39,33.39,0,0,1,58,9q-2,1.27-3.88,2.63" transform="translate(25.94 18.01)"/><path class="cls-7" d="M18,43.44h0A103.45,103.45,0,0,1,14.31,21.2,100.34,100.34,0,0,1,37.74,9.65c.87,4.76,1.55,9.83,2,15A105.68,105.68,0,0,0,28.26,40.3c-3.45,1.21-6.89,2.27-10.24,3.14" transform="translate(25.94 18.01)"/><path class="cls-5" d="M37.13,63.35c2.29-6.69,3.26-15.56,3.26-25,0-1,0-1.91,0-2.87,4-1.8,8-3.73,11.63-5.72v.79A97.31,97.31,0,0,0,53.8,49,86.2,86.2,0,0,1,37.13,63.35" transform="translate(25.94 18.01)"/><path class="cls-5" d="M26.17,68.48c-.56-.14-1.11-.3-1.66-.47a34.9,34.9,0,0,1-7.38-3.29A114.61,114.61,0,0,1,21.37,53.6a118.2,118.2,0,0,0,6.56,14.32c-.59.21-1.18.39-1.76.56" transform="translate(25.94 18.01)"/><path class="cls-6" d="M53.81,49h0A96.48,96.48,0,0,1,52,30.56v-.79A110.51,110.51,0,0,0,66.5,20.56a35.12,35.12,0,0,1,2.52,8A126.47,126.47,0,0,1,53.81,49" transform="translate(25.94 18.01)"/><path class="cls-7" d="M27.93,67.92h0A118.2,118.2,0,0,1,21.37,53.6a120.52,120.52,0,0,1,6.89-13.3c4.06-1.42,8.13-3,12.1-4.81,0,1,0,1.92,0,2.87,0,9.43-1,18.3-3.26,25a45.25,45.25,0,0,1-9.2,4.57" transform="translate(25.94 18.01)"/><path class="cls-6" d="M40.36,35.49c-.07-3.6-.28-7.25-.61-10.88a89.44,89.44,0,0,1,14.35-13A84.07,84.07,0,0,0,52,29.77c-3.67,2-7.59,3.92-11.63,5.72" transform="translate(25.94 18.01)"/><path class="cls-7" d="M52,29.77A84.07,84.07,0,0,1,54.1,11.59Q56,10.24,58,9a34.82,34.82,0,0,1,8.52,11.6A110.51,110.51,0,0,1,52,29.77" transform="translate(25.94 18.01)"/><path class="cls-8" d="M28.26,40.3A105.68,105.68,0,0,1,39.75,24.61c.33,3.63.54,7.28.61,10.88-4,1.76-8,3.39-12.1,4.81" transform="translate(25.94 18.01)"/><path class="cls-2" d="M23,49.52C12,41,16.72,16.05,33.06-9c-1.8,2.07-3.58,4.24-5.31,6.48-21.57,27.92-29,58.3-16.66,67.85S51,60,72.53,32.07q3.59-4.63,6.63-9.32C58.58,46.42,34.4,58.31,23,49.52" transform="translate(25.94 18.01)"/><path class="cls-2" d="M22.64,33.28c-.75,6.52,2.55,14,8.3,14.07S42.61,41,43.36,34.5s-3.93-10.79-9.68-10.86-10.29,3.11-11,9.64" transform="translate(25.94 18.01)"/></g><path class="cls-2" d="M68,45.25l-.16,0a34.5,34.5,0,1,1,1.59-10.33A34.55,34.55,0,0,1,67.85,45.2l.16,0,.15,0A34.85,34.85,0,1,0,34.89,69.76,34.74,34.74,0,0,0,68.16,45.3Z" transform="translate(25.94 18.01)"/><polygon class="cls-9" points="106.93 74.89 108.29 74.89 108.29 81.38 112.35 81.38 112.35 82.61 106.93 82.61 106.93 74.89"/><rect class="cls-9" x="114.94" y="74.89" width="1.36" height="7.73"/><polygon class="cls-9" points="124.96 74.89 126.43 74.89 123.21 82.67 122.02 82.67 118.81 74.89 120.31 74.89 122.64 80.83 124.96 74.89"/><rect class="cls-9" x="128.93" y="74.89" width="1.36" height="7.73"/><polygon class="cls-9" points="138.86 74.89 140.19 74.89 140.19 82.61 139.06 82.61 134.79 77.12 134.79 82.61 133.46 82.61 133.46 74.89 134.72 74.89 138.86 80.23 138.86 74.89"/><path class="cls-9" d="M121,64.74a3.84,3.84,0,0,1-4-4,3.93,3.93,0,0,1,4-4,4.17,4.17,0,0,1,3,1l-.86,1a3,3,0,0,0-2.16-.83,2.61,2.61,0,0,0-2.51,2.74,2.58,2.58,0,0,0,2.63,2.77,3.14,3.14,0,0,0,1.86-.58V61.47h-2V60.29h3.29v3.25a4.94,4.94,0,0,1-3.23,1.2" transform="translate(25.94 18.01)"/><path class="cls-9" d="M137.53,58.85a1.85,1.85,0,0,1-1.1,1.74A1.89,1.89,0,0,1,138,62.47c0,1.4-1.14,2.14-2.86,2.14h-3.58V56.88H135c1.56,0,2.54.76,2.54,2m-1.36.22c0-.63-.48-1-1.35-1h-2v2.05h1.86c.87,0,1.45-.34,1.45-1.06m.43,3.26c0-.66-.52-1-1.59-1h-2.15V63.4h2.25c.93,0,1.49-.36,1.49-1.07" transform="translate(25.94 18.01)"/><polygon class="cls-9" points="172.27 76.1 167.89 76.1 167.89 78.11 171.77 78.11 171.77 79.33 167.89 79.33 167.89 81.4 172.32 81.4 172.32 82.61 166.54 82.61 166.54 74.89 172.27 74.89 172.27 76.1"/><polygon class="cls-9" points="178.68 82.61 177.31 82.61 177.31 79.57 174.24 74.89 175.84 74.89 178.01 78.31 180.19 74.89 181.75 74.89 178.68 79.53 178.68 82.61"/><path class="cls-9" d="M161.13,64.74a3.93,3.93,0,0,1-4-4,4,4,0,0,1,4.06-4,4,4,0,1,1,0,8m0-6.75a2.62,2.62,0,0,0-2.6,2.74,2.65,2.65,0,0,0,2.63,2.76,2.61,2.61,0,0,0,2.6-2.74A2.65,2.65,0,0,0,161.13,58" transform="translate(25.94 18.01)"/><polygon class="cls-9" points="199.27 74.89 200.6 74.89 200.6 82.61 199.47 82.61 195.21 77.12 195.21 82.61 193.87 82.61 193.87 74.89 195.13 74.89 199.27 80.23 199.27 74.89"/><path class="cls-9" d="M180.64,64.61h-2.88V56.88h2.88a3.87,3.87,0,1,1,0,7.73m0-6.5h-1.52v5.26h1.52a2.63,2.63,0,1,0,0-5.26" transform="translate(25.94 18.01)"/><path class="cls-9" d="M194.8,64.61h-2.89V56.88h2.89a3.87,3.87,0,1,1,0,7.73m0-6.5h-1.53v5.26h1.53a2.63,2.63,0,1,0,0-5.26" transform="translate(25.94 18.01)"/><rect class="cls-9" x="227.67" y="74.89" width="1.36" height="7.73"/><path class="cls-9" d="M209.24,60.12c1.63.4,2.48,1,2.48,2.28,0,1.46-1.14,2.32-2.76,2.32a4.73,4.73,0,0,1-3.22-1.24l.81-1a3.56,3.56,0,0,0,2.44,1c.84,0,1.37-.38,1.37-1s-.31-.86-1.74-1.19c-1.65-.4-2.57-.88-2.57-2.32a2.35,2.35,0,0,1,2.63-2.25,4.28,4.28,0,0,1,2.81,1l-.73,1a3.52,3.52,0,0,0-2.1-.8c-.79,0-1.26.41-1.26.93s.36.87,1.84,1.22" transform="translate(25.94 18.01)"/><path class="cls-9" d="M221.66,64.61h-1.44l-.78-1.87h-3.66L215,64.61H213.6l3.4-7.79h1.26Zm-4-6.16-1.33,3.09h2.66Z" transform="translate(25.94 18.01)"/><path class="cls-9" d="M230.09,58.85a1.85,1.85,0,0,1-1.1,1.74,1.89,1.89,0,0,1,1.53,1.88c0,1.4-1.13,2.14-2.86,2.14h-3.57V56.88h3.46c1.56,0,2.54.76,2.54,2m-1.35.22c0-.63-.49-1-1.36-1h-2v2.05h1.86c.87,0,1.46-.34,1.46-1.06m.43,3.26c0-.66-.52-1-1.59-1h-2.16V63.4h2.26c.92,0,1.49-.36,1.49-1.07" transform="translate(25.94 18.01)"/><rect class="cls-9" x="259.17" y="74.89" width="1.36" height="7.73"/><polygon class="cls-9" points="263.7 74.89 265.06 74.89 265.06 81.38 269.12 81.38 269.12 82.61 263.7 82.61 263.7 74.89"/><rect class="cls-9" x="271.72" y="74.89" width="1.36" height="7.73"/><polygon class="cls-9" points="279.51 82.61 278.14 82.61 278.14 76.14 275.69 76.14 275.69 74.89 281.96 74.89 281.96 76.14 279.51 76.14 279.51 82.61"/><polygon class="cls-9" points="288.14 82.61 286.78 82.61 286.78 79.57 283.71 74.89 285.31 74.89 287.47 78.31 289.66 74.89 291.21 74.89 288.14 79.53 288.14 82.61"/><path class="cls-9" d="M81.26,41.59H78V36.81h3.31V22.91H94.44c6.18,0,10,4,10,9.34s-3.79,9.34-10,9.34H86.38v8.6H81.26Zm5.12-4.78h7.67c3.61,0,5.24-2.13,5.24-4.56s-1.63-4.56-5.24-4.56H86.38Z" transform="translate(25.94 18.01)"/><path class="cls-9" d="M112.78,27.43h-6.35V22.91H117.9l11.72,27.28h-5.51L122,45.06H110.27l-2.12,5.13h-5.46Zm7.41,13.11-4-9.77-4.06,9.77Z" transform="translate(25.94 18.01)"/><path class="cls-9" d="M133.72,42.28a11.46,11.46,0,0,0,8.2,3.69c3.88,0,6.61-1.47,6.61-4.08,0-6.08-17.85-.22-17.85-11.34,0-4.86,5.16-8.21,11.46-8.21a15,15,0,0,1,11,4.17l-3.79,3.35a10.05,10.05,0,0,0-7.49-3.26c-4.24,0-5.82,2-5.82,3.69,0,6.13,17.85,0,17.85,11.34,0,5.69-5.86,9.12-12.21,9.12a16.51,16.51,0,0,1-11.86-5Z" transform="translate(25.94 18.01)"/><path class="cls-9" d="M160.66,42.28a11.46,11.46,0,0,0,8.2,3.69c3.88,0,6.61-1.47,6.61-4.08,0-6.08-17.86-.22-17.86-11.34,0-4.86,5.16-8.21,11.47-8.21a15,15,0,0,1,11,4.17l-3.79,3.35a10.09,10.09,0,0,0-7.5-3.26c-4.23,0-5.82,2-5.82,3.69,0,6.13,17.86,0,17.86,11.34,0,5.69-5.87,9.12-12.21,9.12a16.51,16.51,0,0,1-11.86-5Z" transform="translate(25.94 18.01)"/><path class="cls-9" d="M192.71,27.43h-6.35V22.91h11.46l11.73,27.28H204l-2.12-5.13H190.19l-2.11,5.13h-5.47Zm7.4,13.11-4-9.77L192,40.54Z" transform="translate(25.94 18.01)"/><path class="cls-9" d="M224.09,22.34A14.92,14.92,0,0,1,235.91,28l-4.23,3.12a9.08,9.08,0,0,0-7.59-3.95,9.43,9.43,0,1,0,0,18.85,9.27,9.27,0,0,0,9.39-7.38h-9.43V33.81H239v3.61c0,4.47-4.1,13.33-14.86,13.33-8.28,0-14.85-6.21-14.85-14.2s6.57-14.21,14.85-14.21" transform="translate(25.94 18.01)"/><polygon class="cls-9" points="270.31 56.6 267 56.6 267 51.82 270.31 51.82 270.31 40.92 291.56 40.92 291.56 45.7 275.42 45.7 275.42 51.82 286.66 51.82 286.66 56.6 275.42 56.6 275.42 63.42 291.56 63.42 291.56 68.2 270.31 68.2 270.31 56.6"/><polygon class="cls-9" points="110.71 27.56 110.71 35.61 108.25 35.61 108.25 22.2 116.85 30.53 116.85 22.47 119.31 22.47 119.31 35.88 110.71 27.56"/><path class="cls-9" d="M101.23,7.2a5.34,5.34,0,1,1-5.67,5.34,5.39,5.39,0,0,1,5.67-5.34m0,8.62a3.29,3.29,0,1,0-3.33-3.28,3.24,3.24,0,0,0,3.33,3.28" transform="translate(25.94 18.01)"/><path class="cls-9" d="M108.94,7.48H111V8.59h0a2.19,2.19,0,0,1,2-1.39,2.3,2.3,0,0,1,1.21.32l-.79,2.15a1.73,1.73,0,0,0-.83-.29,1.51,1.51,0,0,0-1.53,1.53V17.6h-2.2Z" transform="translate(25.94 18.01)"/><path class="cls-9" d="M115.54,7.48h1.25V4.8L119,4.19V7.48h1.76v2H119v4c0,1.09.25,1.59.91,2l1.19.67-1,1.71c-2.27-1.06-3.33-1.84-3.33-4V9.53h-1.25Z" transform="translate(25.94 18.01)"/><path class="cls-9" d="M123.18,4.46h2.21V8.75h0a3.64,3.64,0,0,1,3.14-1.54,4.08,4.08,0,0,1,4,4.28V17.6h-2.21V12c0-1.84-1-2.59-2.44-2.59a2.38,2.38,0,0,0-2.53,2.55V17.6h-2.21Z" transform="translate(25.94 18.01)"/><path class="cls-9" d="M144.79,15.41A6.25,6.25,0,0,1,140,17.87,5.34,5.34,0,1,1,140,7.2a5.49,5.49,0,0,1,5.33,5.7v.39h-8.54A3.08,3.08,0,0,0,140,16a3.7,3.7,0,0,0,3-1.57Zm-2-3.92a3.09,3.09,0,0,0-3-2.36,2.91,2.91,0,0,0-2.91,2.36Z" transform="translate(25.94 18.01)"/><path class="cls-9" d="M155.54,16.37h0a4.23,4.23,0,0,1-3.37,1.5,5.26,5.26,0,0,1-5.33-5.33,5.46,5.46,0,0,1,5.43-5.34,3.84,3.84,0,0,1,3.27,1.51h0V7.48h2.2V17.6h-2.2Zm-3.15-.55a3.29,3.29,0,1,0-3.27-3.28,3.27,3.27,0,0,0,3.27,3.28" transform="translate(25.94 18.01)"/><path class="cls-9" d="M161.08,14.59a4.75,4.75,0,0,0,3.22,1.48c1.28,0,2-.71,2-1.27s-.53-1-1.34-1.17l-1.25-.23c-2.89-.53-3.69-1.45-3.69-2.89,0-1.72,1.46-3.31,4-3.31a6.75,6.75,0,0,1,4.08,1.41l-1.25,1.52A4.29,4.29,0,0,0,164.16,9c-1,0-1.89.46-1.89,1.28,0,.61.48.92,1.33,1.07l2.23.42c1.83.33,2.72,1.19,2.72,2.69s-1.23,3.41-4.35,3.41a7,7,0,0,1-4.63-1.77Z" transform="translate(25.94 18.01)"/><path class="cls-9" d="M169.44,7.48h1.25V4.8l2.21-.61V7.48h1.76v2H172.9v4c0,1.09.26,1.59.92,2l1.18.67-1,1.71c-2.27-1.06-3.34-1.84-3.34-4V9.53h-1.25Z" transform="translate(25.94 18.01)"/><polygon class="cls-10" points="294.06 42.09 293.02 42.1 293.01 41.37 295.98 41.34 295.98 42.07 294.93 42.08 294.96 45.2 294.09 45.21 294.06 42.09"/><path class="cls-10" d="M273.76,25.67c0-.46,0-1-.05-1.58h0c-.12.49-.27,1-.42,1.49l-.45,1.51h-.68l-.43-1.49c-.13-.45-.27-1-.36-1.5h0c0,.52,0,1.12-.06,1.6l-.05,1.46h-.81l.21-3.86h1.16l.39,1.28c.13.45.25.93.34,1.38h0c.1-.45.23-1,.35-1.39l.4-1.28h1.14l.25,3.85h-.85Z" transform="translate(25.94 18.01)"/><polygon class="cls-9" points="82.86 84.33 81.82 84.34 81.82 83.6 84.78 83.58 84.79 84.31 83.74 84.32 83.77 87.44 82.89 87.45 82.86 84.33"/><path class="cls-9" d="M62.57,67.91c0-.46,0-1,0-1.58h0c-.11.49-.27,1-.41,1.5l-.46,1.5H61l-.42-1.49c-.14-.45-.27-1-.37-1.5h0c0,.52,0,1.12,0,1.6L60,69.41h-.8l.2-3.86h1.17L61,66.83c.12.45.25.93.34,1.38h0c.11-.45.23-1,.36-1.39l.39-1.28,1.14,0,.25,3.86h-.85Z" transform="translate(25.94 18.01)"/></g></g></svg>