<svg xmlns="http://www.w3.org/2000/svg" viewBox="0 0 140.3 162"><defs><style>.cls-1{fill:#f4f4f4;}.cls-2{fill:#fff;}.cls-3{fill:#d3d2d2;}</style></defs><title>Asset 4</title><g id="Layer_2" data-name="Layer 2"><g id="Sized"><polygon class="cls-1" points="42.4 50.25 43.6 35.02 49.2 44.72 49.27 58.41 63.37 69.27 63.37 69.27 70.15 81 57.59 73.75 46.82 61.9 35.07 60.75 0 40.5 12.29 37.21 25.11 48.72 27.43 35.99 42.4 50.25"/><polygon class="cls-2" points="29.64 89.66 17.06 81 28.25 81 40.15 87.78 56.6 81 56.6 81 70.15 81 57.59 88.25 41.95 91.65 35.07 101.25 0 121.5 3.29 109.21 19.67 103.87 9.81 95.49 29.64 89.66"/><polygon class="cls-2" points="57.4 120.41 43.6 126.97 49.2 117.28 61.02 110.38 63.37 92.73 63.37 92.73 70.15 81 70.15 95.5 65.27 110.75 70.15 121.5 70.15 162 61.15 153 64.72 136.15 52.52 140.5 57.4 120.41"/><polygon class="cls-2" points="97.9 111.75 96.69 126.97 91.09 117.28 91.03 103.59 76.92 92.73 76.92 92.73 70.15 81 82.7 88.25 93.47 100.1 105.22 101.25 140.3 121.5 128 124.79 115.19 113.28 112.86 126.01 97.9 111.75"/><polygon class="cls-1" points="110.65 72.34 123.23 81 112.04 81 100.15 74.22 83.7 81 83.7 81 70.15 81 82.7 73.75 98.35 70.35 105.22 60.75 140.3 40.5 137 52.79 120.62 58.13 130.49 66.51 110.65 72.34"/><polygon class="cls-3" points="82.9 41.59 96.69 35.02 91.09 44.72 79.27 51.63 76.92 69.27 76.92 69.27 70.15 81 70.15 66.5 75.02 51.25 70.15 40.5 70.15 0 79.15 9 75.58 25.85 87.77 21.5 82.9 41.59"/><polygon class="cls-3" points="82.9 120.41 96.69 126.97 91.09 117.28 79.27 110.38 76.92 92.73 76.92 92.73 70.15 81 70.15 95.5 75.02 110.75 70.15 121.5 70.15 162 79.15 153 75.58 136.15 87.77 140.5 82.9 120.41"/><polygon class="cls-2" points="57.4 41.59 43.6 35.02 49.2 44.72 61.02 51.63 63.37 69.27 63.37 69.27 70.15 81 70.15 66.5 65.27 51.25 70.15 40.5 70.15 0 61.15 9 64.72 25.85 52.52 21.5 57.4 41.59"/><polygon class="cls-2" points="97.9 50.25 96.69 35.02 91.09 44.72 91.03 58.41 76.92 69.27 76.92 69.27 70.15 81 82.7 73.75 93.47 61.9 105.22 60.75 140.3 40.5 128 37.21 115.19 48.72 112.86 35.99 97.9 50.25"/><polygon class="cls-2" points="29.64 72.34 17.06 81 28.25 81 40.15 74.22 56.6 81 56.6 81 70.15 81 57.59 73.75 41.95 70.35 35.07 60.75 0 40.5 3.29 52.79 19.67 58.13 9.81 66.51 29.64 72.34"/><polygon class="cls-1" points="42.4 111.75 43.6 126.97 49.2 117.28 49.27 103.59 63.37 92.73 63.37 92.73 70.15 81 57.59 88.25 46.82 100.1 35.07 101.25 0 121.5 12.29 124.79 25.11 113.28 27.43 126.01 42.4 111.75"/><polygon class="cls-1" points="110.65 89.66 123.23 81 112.04 81 100.15 87.78 83.7 81 83.7 81 70.15 81 82.7 88.25 98.35 91.65 105.22 101.25 140.3 121.5 137 109.21 120.62 103.87 130.49 95.49 110.65 89.66"/></g></g></svg>