<svg xmlns="http://www.w3.org/2000/svg" width="825.123" height="74.928" viewBox="0 0 825.123 74.928">
  <title>Asset 10</title>
  <g>
    <path d="M14.783,23.737h4.223c8.447,0,9.8-1.014,9.8-8.109h1.774V34.972H28.805c0-7.1-1.352-8.11-9.8-8.11H14.783v13.6c0,8.449,1.013,9.885,8.025,9.885V52.12H0V50.347c7.011,0,8.025-1.436,8.025-9.885V13.009c0-8.447-1.014-9.8-8.025-9.8V1.438H39.955l.676,11.149H38.857l-.422-1.69c-1.1-4.392-2.027-6.335-9.715-6.335H14.783Z" fill="#65666a"/>
    <path d="M66.589,31.763a3.067,3.067,0,0,1-2.956-3.041,2.511,2.511,0,0,0-2.7-2.788c-1.943,0-6.505,3.125-6.505,9.883v4.645c0,8.449,1.014,9.885,6.673,9.885V52.12H41.755V50.347c5.575,0,6.673-1.436,6.673-9.885V36.239c0-8.447-1.1-9.8-6.673-9.8V24.667l11.234-2.112a34.027,34.027,0,0,1,1.436,6.083c1.69-3.38,5.491-6.083,8.87-6.083,4.646,0,6.674,3.125,6.674,5.237C69.969,29.65,69.208,31.763,66.589,31.763Z" fill="#65666a"/>
    <path d="M92.863,53.556c-9.377,0-17.064-7.011-17.064-15.542s7.687-15.459,17.064-15.459,17.064,6.926,17.064,15.459S102.239,53.556,92.863,53.556Zm0-27.79c-6.927,0-10.222,5.49-10.222,12.248s3.3,12.249,10.222,12.249c7.011,0,10.221-5.491,10.221-12.249S99.874,25.766,92.863,25.766Z" fill="#65666a"/>
    <path d="M150.561,40.462c0,8.955.591,9.885,5.322,9.885V52.12H139.327V50.347c4.645,0,5.321-.93,5.321-9.885v-4.9c0-5.491-1.689-9.039-6.082-9.039-2.957,0-8.7,3.209-8.7,8.447v5.49c0,8.786.59,9.885,5.236,9.885V52.12H117.2V50.347c5.575,0,6.673-1.436,6.673-9.885V36.239c0-8.447-1.1-9.8-6.673-9.8V24.667l11.234-2.112a34.1,34.1,0,0,1,1.437,6.083c2.28-2.872,6.081-6.083,10.981-6.083,5.152,0,7.771,2.45,8.954,6.336,1.943-2.788,6.842-6.336,11.826-6.336,7.518,0,9.714,5.406,9.714,12.586v5.321c0,8.449,1.1,9.885,6.674,9.885V52.12H160.106V50.347c4.646,0,5.238-.93,5.238-9.885v-4.9c0-5.491-1.6-9.039-6-9.039-2.872,0-8.785,3.209-8.785,8.447Z" fill="#65666a"/>
    <path d="M220.511,53.556c-9.377,0-17.063-7.011-17.063-15.542s7.686-15.459,17.063-15.459,17.064,6.926,17.064,15.459S229.887,53.556,220.511,53.556Zm0-27.79c-6.927,0-10.221,5.49-10.221,12.248s3.294,12.249,10.221,12.249c7.012,0,10.221-5.491,10.221-12.249S227.523,25.766,220.511,25.766Z" fill="#65666a"/>
    <path d="M272.8,53.556a31.439,31.439,0,0,1-1.351-5.406c-2.112,2.2-6.167,5.406-11.066,5.406-7.772,0-10.475-5.49-10.475-12.67V35.564c0-8.448-1.013-9.884-6.673-9.884V23.991h12.671V40.462c0,5.491,1.858,9.04,6.42,9.04,3.294,0,9.123-3.125,9.123-8.363V35.564c0-8.448-1.1-9.884-6.758-9.884V23.991h12.671v15.8c0,8.447,1.1,9.883,6.758,9.883v1.774Z" fill="#65666a"/>
    <path d="M313.775,31.763a3.067,3.067,0,0,1-2.956-3.041,2.512,2.512,0,0,0-2.7-2.788c-1.943,0-6.5,3.125-6.5,9.883v4.645c0,8.449,1.014,9.885,6.673,9.885V52.12H288.941V50.347c5.575,0,6.673-1.436,6.673-9.885V36.239c0-8.447-1.1-9.8-6.673-9.8V24.667l11.234-2.112a34.027,34.027,0,0,1,1.436,6.083c1.69-3.38,5.491-6.083,8.87-6.083,4.646,0,6.674,3.125,6.674,5.237C317.155,29.65,316.394,31.763,313.775,31.763Z" fill="#65666a"/>
    <path d="M354.494,40.462c0,8.449,1.014,9.885,6.673,9.885V52.12H341.823V50.347c5.575,0,6.674-1.436,6.674-9.885V26.947H341.57V23.991H348.5v-8.11C348.5,4.394,355.423,0,362.35,0c5.575,0,8.448,3.548,8.448,6.252a2.73,2.73,0,0,1-2.789,3.04c-4.139,0-1.857-6.5-7.179-6.5-4.308,0-6.336,3.38-6.336,13.094v8.11h8.447v2.956h-8.447Z" fill="#65666a"/>
    <path d="M392.17,53.05a5.329,5.329,0,0,1-5.743-4.9c-4.139,3.717-7.181,5.069-10.56,5.069-4.139,0-7.6-2.619-7.6-7.1,0-7.181,8.362-10.306,17.992-11.995,0-6.336-.844-8.87-5.659-8.87-1.943,0-4.815,1.351-4.815,4.054a2.915,2.915,0,1,1-5.829,0c0-4.054,5.322-6.757,10.728-6.757,8.194,0,11.573,3.464,11.573,11.489V46.8c0,2.113.675,3.3,1.943,3.3a3.871,3.871,0,0,0,2.365-1.267l1.182,1.6A8.007,8.007,0,0,1,392.17,53.05Zm-5.913-16.3C378.233,38.6,374.6,41.392,374.6,45.109a4,4,0,0,0,3.97,4.308c1.775,0,3.8-.59,7.687-4.055Z" fill="#65666a"/>
    <path d="M435.677,40.462c0,8.955.591,9.885,5.321,9.885V52.12H424.442V50.347c4.645,0,5.321-.93,5.321-9.885v-4.9c0-5.491-1.689-9.039-6.082-9.039-2.956,0-8.7,3.209-8.7,8.447v5.49c0,8.786.591,9.885,5.237,9.885V52.12H402.31V50.347c5.575,0,6.674-1.436,6.674-9.885V36.239c0-8.447-1.1-9.8-6.674-9.8V24.667l11.235-2.112a34.2,34.2,0,0,1,1.436,6.083c2.281-2.872,6.081-6.083,10.981-6.083,5.153,0,7.772,2.45,8.954,6.336,1.943-2.788,6.843-6.336,11.826-6.336,7.519,0,9.715,5.406,9.715,12.586v5.321c0,8.449,1.1,9.885,6.673,9.885V52.12H445.222V50.347c4.646,0,5.237-.93,5.237-9.885v-4.9c0-5.491-1.6-9.039-6-9.039-2.872,0-8.785,3.209-8.785,8.447Z" fill="#65666a"/>
    <path d="M468.036,52.12V50.347c5.575,0,6.673-1.436,6.673-9.885V36.239c0-8.447-1.1-9.8-6.673-9.8V24.667l12.67-2.112V40.462c0,8.449,1.014,9.885,6.674,9.885V52.12Zm9.63-37.843a3.76,3.76,0,1,1,3.717-3.8A3.769,3.769,0,0,1,477.666,14.277Z" fill="#65666a"/>
    <path d="M490.591,52.12V50.347c5.661,0,6.674-1.436,6.674-9.885V13.77c0-8.448-1.013-9.884-6.674-9.884V2.112L503.262,0V40.462c0,8.449,1.1,9.885,6.674,9.885V52.12Z" fill="#65666a"/>
    <path d="M521.172,62.256,525.4,51.7l-9.714-21.034c-1.689-3.717-2.956-4.984-5.659-4.984V23.991h14.951V25.68c-3.717,0-4.646.845-2.7,4.984l6.167,13.516,5.406-13.516c1.605-3.8,1.013-4.984-2.45-4.984V23.991H543.22V25.68c-2.619,0-4.478,1.267-6,4.984L520.75,71.8c-.677,1.689-1.774,3.125-3.126,3.125a2.637,2.637,0,0,1-2.787-2.787C514.837,68.845,518.637,68.845,521.172,62.256Z" fill="#65666a"/>
    <path d="M565.184,26.947V24.92c5.069-1.1,6.928-4.731,7.519-10.222h2.872v9.293h7.349v2.956h-7.349V44.011c0,4.055,1.1,6.167,3.8,6.167,1.52,0,3.547-1.1,5.49-2.958l1.436,1.436c-2.365,2.874-6.082,4.9-8.869,4.9-4.646,0-7.857-2.956-7.857-9.545V26.947Z" fill="#65666a"/>
    <path d="M608.859,53.556c-9.377,0-17.064-7.011-17.064-15.542s7.687-15.459,17.064-15.459,17.063,6.926,17.063,15.459S618.235,53.556,608.859,53.556Zm0-27.79c-6.927,0-10.222,5.49-10.222,12.248s3.3,12.249,10.222,12.249c7.011,0,10.221-5.491,10.221-12.249S615.87,25.766,608.859,25.766Z" fill="#65666a"/>
    <path d="M659.209,62.256,663.432,51.7l-9.714-21.034c-1.69-3.717-2.956-4.984-5.659-4.984V23.991H663.01V25.68c-3.717,0-4.646.845-2.7,4.984l6.166,13.516,5.407-13.516c1.6-3.8,1.013-4.984-2.45-4.984V23.991h11.826V25.68c-2.619,0-4.477,1.267-6,4.984L658.786,71.8c-.675,1.689-1.774,3.125-3.125,3.125a2.637,2.637,0,0,1-2.788-2.787C652.873,68.845,656.674,68.845,659.209,62.256Z" fill="#65666a"/>
    <path d="M702.291,53.556c-9.376,0-17.063-7.011-17.063-15.542s7.687-15.459,17.063-15.459,17.064,6.926,17.064,15.459S711.668,53.556,702.291,53.556Zm0-27.79c-6.926,0-10.221,5.49-10.221,12.248s3.295,12.249,10.221,12.249c7.012,0,10.221-5.491,10.221-12.249S709.3,25.766,702.291,25.766Z" fill="#65666a"/>
    <path d="M754.584,53.556a31.431,31.431,0,0,1-1.352-5.406c-2.112,2.2-6.166,5.406-11.066,5.406-7.771,0-10.475-5.49-10.475-12.67V35.564c0-8.448-1.013-9.884-6.673-9.884V23.991h12.671V40.462c0,5.491,1.859,9.04,6.42,9.04,3.294,0,9.123-3.125,9.123-8.363V35.564c0-8.448-1.1-9.884-6.758-9.884V23.991h12.671v15.8c0,8.447,1.1,9.883,6.758,9.883v1.774Z" fill="#65666a"/>
    <path d="M795.556,31.763a3.068,3.068,0,0,1-2.957-3.041,2.511,2.511,0,0,0-2.7-2.788c-1.943,0-6.5,3.125-6.5,9.883v4.645c0,8.449,1.013,9.885,6.673,9.885V52.12H770.721V50.347c5.575,0,6.674-1.436,6.674-9.885V36.239c0-8.447-1.1-9.8-6.674-9.8V24.667l11.234-2.112a34.1,34.1,0,0,1,1.437,6.083c1.689-3.38,5.491-6.083,8.87-6.083,4.646,0,6.672,3.125,6.672,5.237C798.934,29.65,798.174,31.763,795.556,31.763Z" fill="#65666a"/>
    <path d="M815.071,53.556c-5.828,0-9.038-6-9.038,0h-1.69V41.223h1.69c0,3.8,3.21,9.461,9.292,9.461a4.486,4.486,0,0,0,4.73-4.307c0-2.113-1.774-3.633-4.73-5.154l-4.646-2.534c-4.139-2.2-5.66-5.744-5.66-8.447,0-4.562,4.224-7.687,8.616-7.687,6.335,0,7.6,4.392,7.6,0h1.774v9.8h-1.774a6.86,6.86,0,0,0-6.843-7.1c-2.872,0-4.308,1.52-4.308,3.633,0,2.026,1.436,3.125,5.154,5.153l4.054,2.2c3.717,2.113,5.828,5.069,5.828,8.109C825.123,49.923,820.562,53.556,815.071,53.556Z" fill="#65666a"/>
  </g>
</svg>
