<svg xmlns="http://www.w3.org/2000/svg" viewBox="0 0 167.54 268.14"><defs><style>.cls-1{fill:#fff;}</style></defs><title>Asset 7</title><g id="Layer_2" data-name="Layer 2"><g id="Sized"><path class="cls-1" d="M122.93,68.77c-.15-.16-.3-.31-.46-.46l-.14-.15h0a18.2,18.2,0,0,0-12.5-5h-6a34.79,34.79,0,1,0-40.18,0h-6a18.18,18.18,0,0,0-12.5,5h0l-.15.15c-.15.15-.31.3-.46.46L0,113.37v38.12a15.77,15.77,0,0,0,11.17-4.62l28.32-28.33V252.09a16,16,0,0,0,15.52,16,15.79,15.79,0,0,0,16.06-15.79V182.11H96.46v70a16,16,0,0,0,15.52,16,15.8,15.8,0,0,0,16.07-15.79V118.54l28.32,28.33a15.74,15.74,0,0,0,11.17,4.62V113.37Z"/></g></g></svg>