<svg xmlns="http://www.w3.org/2000/svg" viewBox="0 0 183.33 270.36"><defs><style>.cls-1{fill:#f4f4f4;}</style></defs><title>Asset 6</title><g id="Layer_2" data-name="Layer 2"><g id="Sized"><path class="cls-1" d="M138.73,68.77c-.15-.16-.31-.31-.46-.46l-.15-.15h0a18.18,18.18,0,0,0-12.5-5h-6a34.79,34.79,0,1,0-40.18,0h-6a18.2,18.2,0,0,0-12.5,5h0l-.15.15c-.15.15-.31.3-.46.46L4.63,124.53a15.79,15.79,0,1,0,22.51,22.15l22.12-22.11-9.79,70.19H55.28v18.68a15.8,15.8,0,0,0,9.47,14.48v36a6.42,6.42,0,0,0,6.09,6.47A6.33,6.33,0,0,0,77.4,264V227.92a15.8,15.8,0,0,0,9.47-14.48V194.76h25.38v57.33a16,16,0,0,0,15.53,16,15.79,15.79,0,0,0,16.06-15.79V194.76h15.81l-9.79-70.19,22.3,22.3a15.77,15.77,0,0,0,11.17,4.62V113.37Z"/></g></g></svg>