<svg xmlns="http://www.w3.org/2000/svg" viewBox="0 0 167.54 268.14"><defs><style>.cls-1{fill:#f4f4f4;}</style></defs><title>Asset 8</title><g id="Layer_2" data-name="Layer 2"><g id="Sized"><path class="cls-1" d="M122.93,68.77l-.45-.46-.15-.15h0a18.2,18.2,0,0,0-12.5-5h-6a34.79,34.79,0,1,0-40.18,0h-6a18.18,18.18,0,0,0-12.5,5h0l-.15.15c-.15.15-.31.3-.46.46L0,113.37v38.12a15.77,15.77,0,0,0,11.17-4.62L29,129.06a1.13,1.13,0,0,1,1.92,1L7,257.91a6.42,6.42,0,0,0,4.79,7.48,6.14,6.14,0,0,0,1.4.16,6.31,6.31,0,0,0,6.21-5.16L39.49,153v99.09a16,16,0,0,0,15.52,16,15.79,15.79,0,0,0,16.06-15.79V182.11H96.46v70a16,16,0,0,0,15.52,16,15.8,15.8,0,0,0,16.07-15.79V153l20,107.39a6.33,6.33,0,0,0,6.21,5.16,6,6,0,0,0,1.45-.17,6.43,6.43,0,0,0,4.75-7.47L136.63,130.07a1.14,1.14,0,0,1,1.93-1l17.81,17.81a15.74,15.74,0,0,0,11.17,4.62V113.37ZM39.49,128.84a10.3,10.3,0,1,1,10.29-10.3A10.29,10.29,0,0,1,39.49,128.84Zm88.56,0a10.3,10.3,0,1,1,10.29-10.3A10.3,10.3,0,0,1,128.05,128.84Z"/></g></g></svg>