<svg xmlns="http://www.w3.org/2000/svg" viewBox="0 0 911 523.87"><defs><style>.cls-1{fill:#f4f4f4;}</style></defs><title>Asset 5</title><g id="Layer_2" data-name="Layer 2"><g id="Sized"><path class="cls-1" d="M199,357C199,465,183.32,521.64,58.13,521.64A417,417,0,0,1,0,517.91v-108c8.94.74,16.39,1.49,23.85,1.49,26.08,0,28.32-9.69,28.32-31.3V11.18H199Z"/><path class="cls-1" d="M577.33,260.07c0,179.59-47,263.8-185.56,263.8-129.66,0-175.12-89.42-175.12-268.27C216.65,87.93,262.11,0,397,0,529.64,0,577.33,86.44,577.33,260.07Zm-202.7-3c0,143.08,3,159.47,22.36,159.47,20.12,0,22.36-17.14,22.36-159.47,0-136.37-2.24-149.78-22.36-149.78C379.85,107.31,374.63,120,374.63,257.09Z"/><path class="cls-1" d="M654.65,513.44V371.85c0-9.69-.74-23.1-4.47-34.28L548.08,11.18h161c9.69,73,17.89,151.27,25.34,221.32C739.61,190,753,85.7,762,11.18H911L806.67,338.32c-2.23,8.94-3.72,14.16-3.72,23.84V513.44Z"/><circle class="cls-1" cx="125.57" cy="42.68" r="5.28"/><circle class="cls-1" cx="396.99" cy="31.5" r="5.28"/><circle class="cls-1" cx="628.57" cy="42.68" r="5.28"/><circle class="cls-1" cx="836.48" cy="42.68" r="5.28"/></g></g></svg>